<?xml version="1.0" encoding="utf-8"?>
<svg viewBox="435.332 241.9982 14 16.0018" width="16" height="16" xmlns="http://www.w3.org/2000/svg">
  <g>
    <path fill="white" d="M 442.332 258 C 443.437 258 444.332 257.105 444.332 256 L 440.332 256 C 440.332 257.105 441.227 258 442.332 258 Z M 442.332 243.918 L 441.535 244.079 C 439.671 244.459 438.332 246.098 438.332 248 C 438.332 248.628 438.198 250.197 437.873 251.742 C 437.713 252.509 437.497 253.308 437.21 254 L 447.454 254 C 447.167 253.308 446.952 252.51 446.791 251.742 C 446.466 250.197 446.332 248.628 446.332 248 C 446.331 246.099 444.992 244.46 443.129 244.08 L 442.332 243.917 L 442.332 243.918 Z M 448.552 254 C 448.775 254.447 449.033 254.801 449.332 255 L 435.332 255 C 435.631 254.801 435.889 254.447 436.112 254 C 437.012 252.2 437.332 248.88 437.332 248 C 437.332 245.58 439.052 243.56 441.337 243.099 C 441.26 242.333 442.041 241.772 442.743 242.088 C 443.135 242.265 443.37 242.672 443.327 243.099 C 445.657 243.573 447.332 245.622 447.332 248 C 447.332 248.88 447.652 252.2 448.552 254 Z"/>
    <path style="stroke: white; fill: none;" d="M 448.107 243.724 L 443.227 250.583 L 440.734 248.355"/>
  </g>
</svg>