<?xml version="1.0" standalone="no"?>
<!DOCTYPE svg PUBLIC "-//W3C//DTD SVG 20010904//EN"
 "http://www.w3.org/TR/2001/REC-SVG-20010904/DTD/svg10.dtd">
<svg version="1.0" xmlns="http://www.w3.org/2000/svg"
 width="700.000000pt" height="700.000000pt" viewBox="0 0 700.000000 700.000000"
 preserveAspectRatio="xMidYMid meet">
<metadata>
Created by potrace 1.14, written by Peter Selinger 2001-2017
</metadata>
<g transform="translate(0.000000,700.000000) scale(0.100000,-0.100000)"
fill="#000000" stroke="none">
<path d="M3278 6995 c-1 -1 -42 -5 -89 -9 -47 -4 -95 -8 -105 -10 -10 -2 -45
-7 -78 -11 -160 -19 -429 -82 -606 -142 -1059 -357 -1870 -1169 -2224 -2225
-31 -94 -79 -267 -91 -329 -3 -13 -11 -58 -20 -99 -29 -147 -35 -192 -52 -370
-15 -162 -8 -591 12 -711 2 -13 6 -46 9 -74 37 -321 160 -722 326 -1060 59
-119 170 -316 197 -350 4 -6 29 -42 54 -80 220 -335 582 -693 939 -929 177
-117 208 -135 360 -213 344 -176 730 -298 1099 -349 25 -3 57 -8 71 -10 163
-25 682 -25 842 1 13 2 46 7 73 10 71 10 87 13 115 18 14 3 43 8 65 12 115 21
314 74 455 122 558 189 1087 540 1480 982 36 41 70 79 76 85 29 30 185 242
240 326 120 184 241 412 315 597 66 163 147 422 175 558 16 75 54 300 60 350
4 33 9 76 11 95 8 71 10 517 3 595 -17 172 -22 220 -25 225 -2 3 -6 30 -10 60
-3 30 -10 71 -15 90 -5 19 -12 51 -15 70 -13 75 -67 275 -106 392 -349 1038
-1164 1854 -2204 2206 -167 56 -419 119 -555 137 -19 3 -46 7 -60 10 -13 2
-54 7 -90 11 -36 3 -78 8 -95 11 -33 5 -531 13 -537 8z m425 -440 c56 -3 133
-10 172 -15 149 -21 146 -21 240 -40 28 -6 59 -12 70 -14 102 -19 351 -101
497 -162 825 -348 1444 -1020 1730 -1879 16 -49 31 -97 33 -105 2 -8 12 -49
24 -90 38 -140 74 -364 86 -538 11 -152 4 -489 -10 -542 -2 -8 -7 -40 -10 -70
-6 -54 -10 -81 -20 -130 -2 -13 -7 -41 -10 -62 -9 -59 -63 -264 -96 -363 -107
-323 -294 -676 -486 -915 -109 -136 -153 -186 -246 -281 -64 -65 -222 -207
-272 -244 -22 -17 -49 -38 -60 -48 -79 -73 -418 -274 -585 -347 -52 -23 -108
-48 -125 -55 -81 -35 -359 -122 -445 -139 -14 -3 -61 -12 -105 -21 -88 -18
-103 -20 -220 -35 -179 -22 -431 -28 -580 -15 -87 8 -156 15 -190 20 -16 3
-46 7 -65 10 -773 112 -1517 563 -1993 1208 -142 193 -232 348 -352 612 -62
136 -149 413 -184 585 -6 30 -14 66 -16 80 -3 14 -8 48 -11 75 -3 28 -7 52 -9
55 -2 3 -6 41 -10 85 -4 44 -9 96 -11 115 -5 45 -5 361 0 420 7 73 17 173 21
200 2 14 7 43 9 65 3 22 15 85 26 140 219 1068 999 1946 2037 2291 108 36 296
85 403 105 73 13 72 13 155 23 33 4 71 10 85 12 14 2 81 7 150 10 69 4 126 7
127 8 3 2 146 -3 246 -9z"/>
<path d="M4350 5634 c-337 -70 -588 -303 -676 -629 -20 -75 -27 -293 -11 -368
l8 -38 -73 -33 c-40 -18 -113 -53 -163 -76 -49 -23 -117 -55 -150 -70 -53 -24
-218 -102 -525 -247 -52 -25 -114 -54 -137 -64 l-43 -18 -37 35 c-267 250
-674 296 -1002 113 -210 -118 -372 -345 -415 -586 -19 -107 -13 -267 14 -368
24 -88 91 -236 120 -265 3 -3 18 -23 35 -45 99 -134 271 -248 455 -301 91 -26
325 -27 425 0 99 26 218 84 298 144 37 29 72 52 76 52 5 0 93 -40 197 -89 215
-101 347 -163 484 -227 52 -24 169 -79 260 -122 l165 -78 -3 -114 c-5 -166 21
-289 91 -425 123 -239 374 -418 636 -454 134 -18 310 1 417 45 89 36 134 58
134 66 0 4 5 8 12 8 15 0 107 70 155 118 219 216 305 530 226 827 -81 305
-341 551 -650 615 -74 16 -214 20 -293 9 -180 -25 -362 -119 -490 -250 l-47
-50 -109 52 c-60 28 -136 64 -169 79 -33 15 -118 55 -189 89 -70 33 -130 61
-131 61 -2 0 -63 29 -136 64 -74 35 -178 84 -232 109 -83 39 -98 49 -93 65 31
98 40 313 17 397 -6 22 -9 40 -8 41 1 1 56 27 122 57 66 30 167 77 225 105 58
27 139 65 180 85 41 19 116 54 165 77 50 23 122 57 160 75 39 18 104 49 147
69 42 20 80 36 86 36 5 0 20 -12 33 -27 79 -91 249 -184 404 -220 104 -25 288
-22 392 5 376 99 636 425 642 807 2 114 -10 199 -40 288 -116 344 -429 574
-789 582 -58 1 -134 -4 -170 -11z m275 -445 c78 -27 109 -46 164 -100 225
-222 131 -600 -171 -690 -351 -104 -651 263 -483 591 88 170 312 262 490 199z
m-2540 -1294 c121 -34 228 -138 274 -267 18 -50 23 -144 11 -204 -61 -301
-405 -437 -653 -257 -105 77 -174 223 -164 351 6 86 11 104 43 170 69 141 237
237 394 224 25 -2 68 -10 95 -17z m2567 -1304 c178 -68 292 -271 256 -460 -22
-119 -114 -243 -219 -293 -73 -36 -115 -46 -190 -46 -142 0 -263 66 -343 187
-155 231 -35 550 236 626 70 20 186 13 260 -14z"/>
</g>
</svg>
